<svg width="20" height="20" viewBox="0 0 20 20" fill="none" xmlns="http://www.w3.org/2000/svg">
<g clip-path="url(#clip0)">
<path d="M19.375 18.3334C19.15 18.3334 18.9383 18.2118 18.8267 18.0076L18.8092 17.9759C16.94 14.6001 13.3783 12.5001 9.515 12.5001H8.33333V16.0418C8.33333 16.2926 8.1825 16.5193 7.95167 16.6176C7.7225 16.7143 7.4525 16.6659 7.27333 16.4901L0.19 9.6151C0.0683333 9.4976 0 9.33593 0 9.16676C0 8.9976 0.0683333 8.83593 0.19 8.71843L7.27333 1.84343C7.45333 1.66843 7.7225 1.61843 7.95167 1.71593C8.1825 1.81426 8.33333 2.04093 8.33333 2.29176V5.8351C14.7858 5.94676 20 11.2301 20 17.7084C20 17.9943 19.8067 18.2434 19.53 18.3143C19.4783 18.3276 19.4267 18.3334 19.375 18.3334ZM7.70833 11.2501H9.515C12.995 11.2501 16.2558 12.7743 18.485 15.3426C17.4067 10.6184 13.1708 7.08343 8.125 7.08343H7.70833C7.36333 7.08343 7.08333 6.80343 7.08333 6.45843V3.76926L1.5225 9.16676L7.08333 14.5643V11.8751C7.08333 11.5301 7.36333 11.2501 7.70833 11.2501Z" fill="black"/>
</g>
<defs>
<clipPath id="clip0">
<rect width="20" height="20" fill="white"/>
</clipPath>
</defs>
</svg>
