<svg width="24" height="24" viewBox="0 0 24 24" fill="none" xmlns="http://www.w3.org/2000/svg">
<g clip-path="url(#clip0)">
<path d="M3.49337 22.566H1.79281L2.99532 21.3635C3.64369 20.7151 4.04858 19.8718 4.15744 18.957C2.46551 17.8467 1.2283 16.3859 0.566021 14.7106C-0.0957876 13.0366 -0.178954 11.1939 0.325539 9.38149C0.930854 7.20681 2.3506 5.22467 4.32316 3.80014C6.4667 2.25219 9.13516 1.43396 12.0401 1.43396C15.6996 1.43396 18.7841 2.48535 20.9601 4.47439C22.9204 6.26634 24 8.68342 24 11.2805C24 12.5422 23.7431 13.7699 23.2364 14.9294C22.7121 16.1293 21.9444 17.1977 20.9545 18.1048C18.7756 20.1017 15.693 21.1572 12.0401 21.1572C10.684 21.1572 9.26895 20.9762 8.00558 20.644C6.80974 21.8707 5.18929 22.566 3.49337 22.566ZM12.0401 2.84276C6.21523 2.84276 2.64105 6.31654 1.68273 9.75928C0.777154 13.0127 2.11209 16.0868 5.25372 17.9827L5.60475 18.1945L5.59395 18.6044C5.57253 19.4155 5.37915 20.1969 5.03301 20.9031C5.8759 20.618 6.64073 20.1009 7.23966 19.3933L7.53748 19.0415L7.97914 19.1736C9.21856 19.5443 10.6608 19.7484 12.0401 19.7484C19.2894 19.7484 22.5912 15.3589 22.5912 11.2805C22.5912 9.08385 21.6744 7.03602 20.0095 5.51423C18.0976 3.76656 15.3418 2.84276 12.0401 2.84276Z" fill="black"/>
</g>
<defs>
<clipPath id="clip0">
<rect width="24" height="24" fill="white"/>
</clipPath>
</defs>
</svg>
