<svg width="273" height="368" viewBox="0 0 273 368" fill="none" xmlns="http://www.w3.org/2000/svg">
<path d="M261.35 202.35L137.35 355.35L14.3496 202.35L86.3496 202.35L86.3496 12.8501L182.35 12.8501L186.35 198.35L261.35 202.35Z" fill="#EC6F00" stroke="black"/>
<path d="M2.67973 205L130.68 365C133.712 368.8 140.144 368.8 143.176 365L271.176 205C273.096 202.6 273.472 199.312 272.144 196.536C270.8 193.76 267.992 192 264.92 192L192.92 192L192.92 16.0001C192.92 7.17608 185.744 8.39307e-05 176.92 8.31593e-05L96.9198 7.61655e-05C88.0958 7.5394e-05 80.9198 7.17607 80.9198 16.0001L80.9198 192L8.91975 192C5.84776 192 3.03975 193.76 1.71175 196.536C0.375747 199.304 0.751723 202.6 2.67973 205ZM88.9198 208C93.3358 208 96.9198 204.416 96.9198 200L96.9198 16.0001L176.92 16.0001L176.92 200C176.92 204.416 180.504 208 184.92 208L248.272 208L136.92 347.192L25.5677 208L88.9198 208Z" fill="black"/>
</svg>
