<?xml version="1.0" encoding="utf-8"?>
<!-- Generator: Adobe Illustrator 24.0.0, SVG Export Plug-In . SVG Version: 6.00 Build 0)  -->
<svg version="1.1" id="Layer_1" xmlns="http://www.w3.org/2000/svg" xmlns:xlink="http://www.w3.org/1999/xlink" x="0px" y="0px"
	 viewBox="0 0 1000 1000" style="enable-background:new 0 0 1000 1000;" xml:space="preserve">
<style type="text/css">
	.st0{display:none;}
	.st1{display:none;fill:#EC6F00;}
	.st2{display:inline;fill:#FFFFFF;}
	.st3{display:inline;fill:#EC6F00;}
</style>
<rect y="-3.85" class="st0" width="1002.11" height="1008"/>
<circle class="st1" cx="271.34" cy="501.85" r="125.45"/>
<path d="M747.74,501.9c0,122.01-88.21,223.42-204.33,243.94c-6-2.25-17.13-7.1-36.85-17.56c-35.7-18.93-78.04-114.72-22.39-131.64
	c55.66-16.92,62.52,27.71,85.13,8.76c25.92-27.31,26.01-56.11,32.9-70.7c6.88-14.58,52.79-6.84,36.71-24.58
	c-16.09-17.75-29.83-31.22-25.97-70.44c28.34-59.11-2.84-97.48-2.84-97.48s-1.53,53.56-66.48,66.85
	c-64.94,13.29-81.7,46.53-81.7,46.53c-6.74,9.09-9.94,2.92-9.94,2.92s-16.32-45.4-43.99-20.98c-27.67,24.41-12.97,55.57-8.14,65.72
	c4.83,10.14,19.99,10.86,12.56,33.93c-28.44,85.88-5.47,164.93,7.96,199.38C322.62,703.4,252.26,610.87,252.26,501.9
	c0-136.83,110.91-247.74,247.74-247.74S747.74,365.08,747.74,501.9z"/>
<g class="st0">
	<path class="st2" d="M495.82,580.65h-70.2V409.93h25.74V555.1h44.46V580.65z"/>
	<path class="st3" d="M514.37,580.66h25.74v-25.87h-25.74V580.66z M514.37,409.93v118.99h25.74V409.93H514.37z"/>
	<path class="st2" d="M593.02,409.93l34.07,114.66V409.93h25.74v170.73h-27.57l-35.42-109.32v109.32H564.1V409.93H593.02z"/>
	<path class="st2" d="M702.55,580.65h-25.74V409.93h25.74V580.65z"/>
	<path class="st2" d="M751.53,435.67H724.2v-25.74h80.31v25.74h-27.24v144.99h-25.74V435.67z"/>
	<path class="st2" d="M835.79,541.44l-6.27,39.22h-26.77l28.92-170.73h35.47l28.55,170.73h-26.96l-6.08-39.22H835.79z
		 M849.27,449.05l-9.55,67.3h19.09L849.27,449.05z"/>
</g>
</svg>
