<?xml version="1.0" encoding="utf-8"?>
<!-- Generator: Adobe Illustrator 24.0.0, SVG Export Plug-In . SVG Version: 6.00 Build 0)  -->
<svg version="1.1" id="Layer_1" xmlns="http://www.w3.org/2000/svg" xmlns:xlink="http://www.w3.org/1999/xlink" x="0px" y="0px"
	 viewBox="0 0 1000 1000" style="enable-background:new 0 0 1000 1000;" xml:space="preserve">
<style type="text/css">
	.st0{display:none;}
	.st1{display:none;fill:#EC6F00;}
	.st2{fill:#EC6F00;}
</style>
<rect y="-3.85" class="st0" width="1002.11" height="1008"/>
<circle class="st1" cx="271.34" cy="501.85" r="125.45"/>
<path d="M374.59,501.11c0,61.42-44.4,112.46-102.85,122.79c-3.02-1.13-8.62-3.58-18.55-8.84c-17.97-9.53-39.28-57.74-11.27-66.26
	c28.01-8.51,31.47,13.95,42.85,4.41c13.05-13.75,13.09-28.24,16.56-35.59c3.46-7.34,26.57-3.44,18.48-12.37
	c-8.1-8.94-15.01-15.72-13.07-35.46c14.26-29.75-1.43-49.07-1.43-49.07s-0.77,26.96-33.46,33.65
	c-32.69,6.69-41.13,23.42-41.13,23.42c-3.39,4.57-5,1.47-5,1.47s-8.21-22.85-22.14-10.56c-13.93,12.29-6.53,27.97-4.1,33.08
	c2.43,5.11,10.06,5.47,6.32,17.08c-14.31,43.23-2.75,83.02,4.01,100.36c-49.21-16.69-84.62-63.27-84.62-118.11
	c0-68.87,55.83-124.7,124.7-124.7S374.59,432.23,374.59,501.11z"/>
<g>
	<path d="M495.82,580.65h-70.2V409.93h25.74V555.1h44.46V580.65z"/>
	<path class="st2" d="M514.37,580.66h25.74v-25.87h-25.74V580.66z M514.37,409.93v118.99h25.74V409.93H514.37z"/>
	<path d="M593.02,409.93l34.07,114.66V409.93h25.74v170.73h-27.57l-35.42-109.32v109.32H564.1V409.93H593.02z"/>
	<path d="M702.55,580.65h-25.74V409.93h25.74V580.65z"/>
	<path d="M751.53,435.67H724.2v-25.74h80.31v25.74h-27.24v144.99h-25.74V435.67z"/>
	<path d="M835.79,541.44l-6.27,39.22h-26.77l28.92-170.73h35.47l28.55,170.73h-26.96l-6.08-39.22H835.79z M849.27,449.05l-9.55,67.3
		h19.09L849.27,449.05z"/>
</g>
</svg>
