<svg width="29" height="29" viewBox="0 0 29 29" fill="none" xmlns="http://www.w3.org/2000/svg">
<path d="M22.4499 18.0568C20.7589 18.0568 19.2451 18.8283 18.2406 20.0374L11.7066 16.3277C11.9098 15.7559 12.0215 15.1411 12.0215 14.5004C12.0215 13.8598 11.9098 13.245 11.7066 12.6732L18.2401 8.96256C19.2444 10.1721 20.7585 10.9438 22.4497 10.9438C25.4661 10.9438 27.9202 8.4888 27.9202 5.47107C27.9205 2.45423 25.4664 0 22.4499 0C19.4331 0 16.9787 2.45423 16.9787 5.47094C16.9787 6.11165 17.0903 6.72658 17.2936 7.2985L10.7597 11.0093C9.75539 9.80034 8.24167 9.02919 6.55106 9.02919C3.53385 9.02919 1.0791 11.4834 1.0791 14.5003C1.0791 17.517 3.53385 19.9712 6.55106 19.9712C8.24167 19.9712 9.75526 19.2 10.7596 17.9912L17.2936 21.7011C17.0903 22.273 16.9786 22.8881 16.9786 23.5289C16.9786 26.5456 19.4329 28.9999 22.4498 28.9999C25.4662 28.9999 27.9203 26.5455 27.9203 23.5289C27.9205 20.5117 25.4664 18.0568 22.4499 18.0568ZM22.4499 1.91448C24.4107 1.91448 26.006 3.50988 26.006 5.47094C26.006 7.43302 24.4107 9.02919 22.4499 9.02919C20.4887 9.02919 18.8932 7.43302 18.8932 5.47094C18.8932 3.50988 20.4887 1.91448 22.4499 1.91448ZM6.55119 18.0568C4.58962 18.0568 2.99371 16.4613 2.99371 14.5004C2.99371 12.5392 4.58962 10.9438 6.55119 10.9438C8.512 10.9438 10.1071 12.5392 10.1071 14.5004C10.1071 16.4613 8.51187 18.0568 6.55119 18.0568ZM22.4499 27.0855C20.4887 27.0855 18.8932 25.49 18.8932 23.5291C18.8932 21.5674 20.4887 19.9713 22.4499 19.9713C24.4107 19.9713 26.006 21.5674 26.006 23.5291C26.006 25.49 24.4107 27.0855 22.4499 27.0855Z" fill="black"/>
</svg>
