<svg width="18" height="18" viewBox="0 0 18 18" fill="none" xmlns="http://www.w3.org/2000/svg">
<path d="M9.90645 15.6664L9 16.5729L8.09355 15.6664L8.08274 15.6556L8.07129 15.6455C5.72289 13.568 3.82096 11.8631 2.50127 10.2575C1.18729 8.65881 0.5 7.21636 0.5 5.66997C0.5 3.15611 2.43614 1.21997 4.95 1.21997C6.33055 1.21997 7.72177 1.87339 8.61831 2.93294L9 3.38403L9.38169 2.93294C10.2782 1.87339 11.6694 1.21997 13.05 1.21997C15.5639 1.21997 17.5 3.15611 17.5 5.66997C17.5 7.21636 16.8127 8.65881 15.4987 10.2575C14.179 11.8631 12.2771 13.568 9.92871 15.6455L9.91726 15.6556L9.90645 15.6664Z" fill="white" stroke="#E70000"/>
</svg>
