<svg width="273" height="368" viewBox="0 0 273 368" fill="none" xmlns="http://www.w3.org/2000/svg">
<path d="M271.17 162.85L143.17 2.85C140.138 -0.95 133.706 -0.95 130.674 2.85L2.67388 162.85C0.753883 165.25 0.377885 168.538 1.70588 171.314C3.04988 174.09 5.85788 175.85 8.92988 175.85H80.9299V351.85C80.9299 360.674 88.1059 367.85 96.9299 367.85H176.93C185.754 367.85 192.93 360.674 192.93 351.85V175.85H264.93C268.002 175.85 270.81 174.09 272.138 171.314C273.474 168.546 273.098 165.25 271.17 162.85ZM184.93 159.85C180.514 159.85 176.93 163.434 176.93 167.85V351.85H96.9299V167.85C96.9299 163.434 93.3459 159.85 88.9299 159.85H25.5779L136.93 20.658L248.282 159.85H184.93Z" fill="black"/>
</svg>
